<mxfile host="65bd71144e" scale="10" border="0">
    <diagram id="Jf5RHwIwj3P055EiEldz" name="第 1 页">
        <mxGraphModel dx="1106" dy="626" grid="1" gridSize="10" guides="1" tooltips="1" connect="1" arrows="1" fold="1" page="1" pageScale="1" pageWidth="1169" pageHeight="1654" math="0" shadow="0">
            <root>
                <mxCell id="0"/>
                <mxCell id="1" parent="0"/>
                <mxCell id="357" value="" style="rounded=0;whiteSpace=wrap;html=1;strokeColor=#DAE8FC;fillColor=#DAE8FC;" parent="1" vertex="1">
                    <mxGeometry x="40" y="950" width="600" height="120" as="geometry"/>
                </mxCell>
                <mxCell id="358" value="" style="rounded=0;whiteSpace=wrap;html=1;strokeColor=#DAE8FC;fillColor=#DAE8FC;" parent="1" vertex="1">
                    <mxGeometry x="280" y="910" width="360" height="40" as="geometry"/>
                </mxCell>
                <mxCell id="359" value="" style="rounded=0;whiteSpace=wrap;html=1;strokeColor=#F8CECC;fillColor=#F8CECC;" parent="1" vertex="1">
                    <mxGeometry x="40" y="870" width="200" height="40" as="geometry"/>
                </mxCell>
                <mxCell id="360" value="" style="rounded=0;whiteSpace=wrap;html=1;strokeColor=#F8CECC;fillColor=#f8cecc;" parent="1" vertex="1">
                    <mxGeometry x="40" y="750" width="600" height="120" as="geometry"/>
                </mxCell>
                <mxCell id="362" value="" style="whiteSpace=wrap;html=1;aspect=fixed;fillColor=#d5e8d4;strokeColor=#82b366;" parent="1" vertex="1">
                    <mxGeometry x="280" y="870" width="40" height="40" as="geometry"/>
                </mxCell>
                <mxCell id="363" value="" style="whiteSpace=wrap;html=1;aspect=fixed;" parent="1" vertex="1">
                    <mxGeometry x="320" y="870" width="40" height="40" as="geometry"/>
                </mxCell>
                <mxCell id="364" value="" style="whiteSpace=wrap;html=1;aspect=fixed;" parent="1" vertex="1">
                    <mxGeometry x="360" y="870" width="40" height="40" as="geometry"/>
                </mxCell>
                <mxCell id="365" value="" style="whiteSpace=wrap;html=1;aspect=fixed;" parent="1" vertex="1">
                    <mxGeometry x="400" y="870" width="40" height="40" as="geometry"/>
                </mxCell>
                <mxCell id="366" value="" style="whiteSpace=wrap;html=1;aspect=fixed;" parent="1" vertex="1">
                    <mxGeometry x="440" y="870" width="40" height="40" as="geometry"/>
                </mxCell>
                <mxCell id="367" value="" style="whiteSpace=wrap;html=1;aspect=fixed;" parent="1" vertex="1">
                    <mxGeometry x="480" y="870" width="40" height="40" as="geometry"/>
                </mxCell>
                <mxCell id="368" value="" style="whiteSpace=wrap;html=1;aspect=fixed;" parent="1" vertex="1">
                    <mxGeometry x="520" y="870" width="40" height="40" as="geometry"/>
                </mxCell>
                <mxCell id="369" value="" style="whiteSpace=wrap;html=1;aspect=fixed;" parent="1" vertex="1">
                    <mxGeometry x="560" y="870" width="40" height="40" as="geometry"/>
                </mxCell>
                <mxCell id="370" value="" style="whiteSpace=wrap;html=1;aspect=fixed;" parent="1" vertex="1">
                    <mxGeometry x="600" y="870" width="40" height="40" as="geometry"/>
                </mxCell>
                <mxCell id="371" value="" style="whiteSpace=wrap;html=1;aspect=fixed;" parent="1" vertex="1">
                    <mxGeometry x="120" y="910" width="40" height="40" as="geometry"/>
                </mxCell>
                <mxCell id="372" value="" style="whiteSpace=wrap;html=1;aspect=fixed;" parent="1" vertex="1">
                    <mxGeometry x="160" y="910" width="40" height="40" as="geometry"/>
                </mxCell>
                <mxCell id="373" value="" style="edgeStyle=none;html=1;" parent="1" source="374" target="357" edge="1">
                    <mxGeometry relative="1" as="geometry"/>
                </mxCell>
                <mxCell id="374" value="" style="whiteSpace=wrap;html=1;aspect=fixed;" parent="1" vertex="1">
                    <mxGeometry x="200" y="910" width="40" height="40" as="geometry"/>
                </mxCell>
                <mxCell id="375" value="" style="whiteSpace=wrap;html=1;aspect=fixed;" parent="1" vertex="1">
                    <mxGeometry x="40" y="910" width="40" height="40" as="geometry"/>
                </mxCell>
                <mxCell id="376" value="" style="whiteSpace=wrap;html=1;aspect=fixed;" parent="1" vertex="1">
                    <mxGeometry x="80" y="910" width="40" height="40" as="geometry"/>
                </mxCell>
                <mxCell id="377" value="" style="whiteSpace=wrap;html=1;aspect=fixed;" parent="1" vertex="1">
                    <mxGeometry x="120" y="910" width="40" height="40" as="geometry"/>
                </mxCell>
                <mxCell id="457" style="edgeStyle=none;html=1;entryX=0;entryY=0.5;entryDx=0;entryDy=0;fontFamily=Times New Roman;fontSize=22;rounded=0;" parent="1" source="378" target="446" edge="1">
                    <mxGeometry relative="1" as="geometry">
                        <Array as="points">
                            <mxPoint x="260" y="1165"/>
                        </Array>
                    </mxGeometry>
                </mxCell>
                <mxCell id="378" value="&lt;font face=&quot;Times New Roman&quot;&gt;now&lt;br&gt;2&lt;br&gt;&lt;/font&gt;" style="whiteSpace=wrap;html=1;aspect=fixed;" parent="1" vertex="1">
                    <mxGeometry x="240" y="910" width="40" height="40" as="geometry"/>
                </mxCell>
                <mxCell id="382" value="" style="whiteSpace=wrap;html=1;aspect=fixed;fillColor=#d5e8d4;strokeColor=#82b366;" parent="1" vertex="1">
                    <mxGeometry x="320" y="870" width="40" height="40" as="geometry"/>
                </mxCell>
                <mxCell id="455" style="edgeStyle=none;html=1;fontFamily=Times New Roman;fontSize=22;" parent="1" source="383" target="378" edge="1">
                    <mxGeometry relative="1" as="geometry"/>
                </mxCell>
                <mxCell id="456" style="edgeStyle=none;html=1;entryX=0;entryY=0.5;entryDx=0;entryDy=0;fontFamily=Times New Roman;fontSize=22;exitX=0.018;exitY=0.446;exitDx=0;exitDy=0;exitPerimeter=0;" parent="1" source="362" target="358" edge="1">
                    <mxGeometry relative="1" as="geometry">
                        <Array as="points">
                            <mxPoint x="300" y="910"/>
                        </Array>
                    </mxGeometry>
                </mxCell>
                <mxCell id="383" value="&lt;font face=&quot;Times New Roman&quot;&gt;up&lt;br&gt;2&lt;/font&gt;" style="whiteSpace=wrap;html=1;aspect=fixed;fillColor=#82B366;strokeColor=#82B366;" parent="1" vertex="1">
                    <mxGeometry x="240" y="870" width="40" height="40" as="geometry"/>
                </mxCell>
                <mxCell id="384" value="" style="whiteSpace=wrap;html=1;aspect=fixed;fillColor=#d5e8d4;strokeColor=#82b366;" parent="1" vertex="1">
                    <mxGeometry x="360" y="870" width="40" height="40" as="geometry"/>
                </mxCell>
                <mxCell id="385" value="" style="whiteSpace=wrap;html=1;aspect=fixed;fillColor=#d5e8d4;strokeColor=#82b366;" parent="1" vertex="1">
                    <mxGeometry x="400" y="870" width="40" height="40" as="geometry"/>
                </mxCell>
                <mxCell id="386" value="" style="whiteSpace=wrap;html=1;aspect=fixed;fillColor=#d5e8d4;strokeColor=#82b366;" parent="1" vertex="1">
                    <mxGeometry x="400" y="870" width="40" height="40" as="geometry"/>
                </mxCell>
                <mxCell id="387" value="" style="whiteSpace=wrap;html=1;aspect=fixed;fillColor=#d5e8d4;strokeColor=#82b366;" parent="1" vertex="1">
                    <mxGeometry x="360" y="870" width="40" height="40" as="geometry"/>
                </mxCell>
                <mxCell id="388" value="" style="whiteSpace=wrap;html=1;aspect=fixed;fillColor=#d5e8d4;strokeColor=#82b366;" parent="1" vertex="1">
                    <mxGeometry x="320" y="870" width="40" height="40" as="geometry"/>
                </mxCell>
                <mxCell id="389" value="" style="whiteSpace=wrap;html=1;aspect=fixed;fillColor=#d5e8d4;strokeColor=#82b366;" parent="1" vertex="1">
                    <mxGeometry x="480" y="870" width="40" height="40" as="geometry"/>
                </mxCell>
                <mxCell id="390" value="" style="whiteSpace=wrap;html=1;aspect=fixed;fillColor=#d5e8d4;strokeColor=#82b366;" parent="1" vertex="1">
                    <mxGeometry x="440" y="870" width="40" height="40" as="geometry"/>
                </mxCell>
                <mxCell id="391" style="edgeStyle=none;html=1;entryX=0.5;entryY=0;entryDx=0;entryDy=0;fontFamily=宋体;fontSource=https%3A%2F%2Ffonts.googleapis.com%2Fcss%3Ffamily%3D%25E5%25AE%258B%25E4%25BD%2593;fontSize=15;" parent="1" source="392" target="400" edge="1">
                    <mxGeometry relative="1" as="geometry">
                        <Array as="points">
                            <mxPoint x="705" y="890"/>
                        </Array>
                    </mxGeometry>
                </mxCell>
                <mxCell id="392" value="" style="whiteSpace=wrap;html=1;aspect=fixed;fillColor=#d5e8d4;strokeColor=#82b366;" parent="1" vertex="1">
                    <mxGeometry x="600" y="870" width="40" height="40" as="geometry"/>
                </mxCell>
                <mxCell id="393" value="" style="whiteSpace=wrap;html=1;aspect=fixed;fillColor=#d5e8d4;strokeColor=#82b366;" parent="1" vertex="1">
                    <mxGeometry x="560" y="870" width="40" height="40" as="geometry"/>
                </mxCell>
                <mxCell id="394" value="" style="whiteSpace=wrap;html=1;aspect=fixed;fillColor=#d5e8d4;strokeColor=#82b366;" parent="1" vertex="1">
                    <mxGeometry x="520" y="870" width="40" height="40" as="geometry"/>
                </mxCell>
                <mxCell id="395" value="" style="whiteSpace=wrap;html=1;aspect=fixed;fillColor=#d5e8d4;strokeColor=#82b366;" parent="1" vertex="1">
                    <mxGeometry x="80" y="910" width="40" height="40" as="geometry"/>
                </mxCell>
                <mxCell id="396" value="" style="whiteSpace=wrap;html=1;aspect=fixed;fillColor=#d5e8d4;strokeColor=#82b366;" parent="1" vertex="1">
                    <mxGeometry x="40" y="910" width="40" height="40" as="geometry"/>
                </mxCell>
                <mxCell id="397" value="&lt;font face=&quot;Times New Roman&quot;&gt;left&lt;br&gt;0&lt;/font&gt;" style="whiteSpace=wrap;html=1;aspect=fixed;fillColor=#d5e8d4;strokeColor=#82b366;" parent="1" vertex="1">
                    <mxGeometry x="200" y="910" width="40" height="40" as="geometry"/>
                </mxCell>
                <mxCell id="398" value="" style="whiteSpace=wrap;html=1;aspect=fixed;fillColor=#d5e8d4;strokeColor=#82b366;" parent="1" vertex="1">
                    <mxGeometry x="160" y="910" width="40" height="40" as="geometry"/>
                </mxCell>
                <mxCell id="399" value="" style="whiteSpace=wrap;html=1;aspect=fixed;fillColor=#d5e8d4;strokeColor=#82b366;" parent="1" vertex="1">
                    <mxGeometry x="120" y="910" width="40" height="40" as="geometry"/>
                </mxCell>
                <mxCell id="400" value="&lt;p class=&quot;MsoNormal&quot;&gt;&lt;font face=&quot;宋体&quot; data-font-src=&quot;https://fonts.googleapis.com/css?family=%E5%AE%8B%E4%BD%93&quot; style=&quot;font-size: 22px&quot;&gt;行寄存器数组&lt;/font&gt;&lt;br&gt;&lt;/p&gt;" style="text;html=1;strokeColor=none;fillColor=none;align=center;verticalAlign=middle;whiteSpace=wrap;rounded=0;" parent="1" vertex="1">
                    <mxGeometry x="650" y="950" width="110" height="70" as="geometry"/>
                </mxCell>
                <mxCell id="401" value="&lt;font face=&quot;Times New Roman&quot;&gt;3&lt;/font&gt;" style="rounded=0;whiteSpace=wrap;html=1;fontFamily=宋体;fontSource=https%3A%2F%2Ffonts.googleapis.com%2Fcss%3Ffamily%3D%25E5%25AE%258B%25E4%25BD%2593;fontSize=15;" parent="1" vertex="1">
                    <mxGeometry x="80" y="1120" width="60" height="30" as="geometry"/>
                </mxCell>
                <mxCell id="402" value="&lt;font face=&quot;Times New Roman&quot;&gt;4&lt;/font&gt;" style="rounded=0;whiteSpace=wrap;html=1;fontFamily=宋体;fontSource=https%3A%2F%2Ffonts.googleapis.com%2Fcss%3Ffamily%3D%25E5%25AE%258B%25E4%25BD%2593;fontSize=15;" parent="1" vertex="1">
                    <mxGeometry x="80" y="1150" width="60" height="30" as="geometry"/>
                </mxCell>
                <mxCell id="403" value="&lt;span style=&quot;font-family: &amp;#34;times new roman&amp;#34;&quot;&gt;5&lt;/span&gt;" style="rounded=0;whiteSpace=wrap;html=1;fontFamily=宋体;fontSource=https%3A%2F%2Ffonts.googleapis.com%2Fcss%3Ffamily%3D%25E5%25AE%258B%25E4%25BD%2593;fontSize=15;" parent="1" vertex="1">
                    <mxGeometry x="80" y="1180" width="60" height="30" as="geometry"/>
                </mxCell>
                <mxCell id="408" value="&lt;font face=&quot;Times New Roman&quot;&gt;...&lt;/font&gt;" style="rounded=0;whiteSpace=wrap;html=1;fontFamily=宋体;fontSource=https%3A%2F%2Ffonts.googleapis.com%2Fcss%3Ffamily%3D%25E5%25AE%258B%25E4%25BD%2593;fontSize=15;" parent="1" vertex="1">
                    <mxGeometry x="80" y="1210" width="60" height="30" as="geometry"/>
                </mxCell>
                <mxCell id="409" value="" style="rounded=0;whiteSpace=wrap;html=1;fontFamily=宋体;fontSource=https%3A%2F%2Ffonts.googleapis.com%2Fcss%3Ffamily%3D%25E5%25AE%258B%25E4%25BD%2593;fontSize=15;" parent="1" vertex="1">
                    <mxGeometry x="360" y="1120" width="60" height="30" as="geometry"/>
                </mxCell>
                <mxCell id="410" value="" style="rounded=0;whiteSpace=wrap;html=1;fontFamily=宋体;fontSource=https%3A%2F%2Ffonts.googleapis.com%2Fcss%3Ffamily%3D%25E5%25AE%258B%25E4%25BD%2593;fontSize=15;fillColor=#ffe6cc;strokeColor=#d79b00;" parent="1" vertex="1">
                    <mxGeometry x="360" y="1150" width="60" height="30" as="geometry"/>
                </mxCell>
                <mxCell id="411" value="" style="rounded=0;whiteSpace=wrap;html=1;fontFamily=宋体;fontSource=https%3A%2F%2Ffonts.googleapis.com%2Fcss%3Ffamily%3D%25E5%25AE%258B%25E4%25BD%2593;fontSize=15;" parent="1" vertex="1">
                    <mxGeometry x="360" y="1180" width="60" height="30" as="geometry"/>
                </mxCell>
                <mxCell id="412" value="" style="rounded=0;whiteSpace=wrap;html=1;fontFamily=宋体;fontSource=https%3A%2F%2Ffonts.googleapis.com%2Fcss%3Ffamily%3D%25E5%25AE%258B%25E4%25BD%2593;fontSize=15;" parent="1" vertex="1">
                    <mxGeometry x="360" y="1210" width="60" height="30" as="geometry"/>
                </mxCell>
                <mxCell id="417" value="" style="rounded=0;whiteSpace=wrap;html=1;fontFamily=宋体;fontSource=https%3A%2F%2Ffonts.googleapis.com%2Fcss%3Ffamily%3D%25E5%25AE%258B%25E4%25BD%2593;fontSize=15;" parent="1" vertex="1">
                    <mxGeometry x="420" y="1120" width="60" height="30" as="geometry"/>
                </mxCell>
                <mxCell id="418" value="" style="rounded=0;whiteSpace=wrap;html=1;fontFamily=宋体;fontSource=https%3A%2F%2Ffonts.googleapis.com%2Fcss%3Ffamily%3D%25E5%25AE%258B%25E4%25BD%2593;fontSize=15;fillColor=#ffe6cc;strokeColor=#d79b00;" parent="1" vertex="1">
                    <mxGeometry x="420" y="1150" width="60" height="30" as="geometry"/>
                </mxCell>
                <mxCell id="419" value="" style="rounded=0;whiteSpace=wrap;html=1;fontFamily=宋体;fontSource=https%3A%2F%2Ffonts.googleapis.com%2Fcss%3Ffamily%3D%25E5%25AE%258B%25E4%25BD%2593;fontSize=15;" parent="1" vertex="1">
                    <mxGeometry x="420" y="1180" width="60" height="30" as="geometry"/>
                </mxCell>
                <mxCell id="420" value="" style="rounded=0;whiteSpace=wrap;html=1;fontFamily=宋体;fontSource=https%3A%2F%2Ffonts.googleapis.com%2Fcss%3Ffamily%3D%25E5%25AE%258B%25E4%25BD%2593;fontSize=15;" parent="1" vertex="1">
                    <mxGeometry x="420" y="1210" width="60" height="30" as="geometry"/>
                </mxCell>
                <mxCell id="425" value="" style="rounded=0;whiteSpace=wrap;html=1;fontFamily=宋体;fontSource=https%3A%2F%2Ffonts.googleapis.com%2Fcss%3Ffamily%3D%25E5%25AE%258B%25E4%25BD%2593;fontSize=15;" parent="1" vertex="1">
                    <mxGeometry x="480" y="1120" width="60" height="30" as="geometry"/>
                </mxCell>
                <mxCell id="426" value="" style="rounded=0;whiteSpace=wrap;html=1;fontFamily=宋体;fontSource=https%3A%2F%2Ffonts.googleapis.com%2Fcss%3Ffamily%3D%25E5%25AE%258B%25E4%25BD%2593;fontSize=15;fillColor=#ffe6cc;strokeColor=#d79b00;" parent="1" vertex="1">
                    <mxGeometry x="480" y="1150" width="60" height="30" as="geometry"/>
                </mxCell>
                <mxCell id="427" value="" style="rounded=0;whiteSpace=wrap;html=1;fontFamily=宋体;fontSource=https%3A%2F%2Ffonts.googleapis.com%2Fcss%3Ffamily%3D%25E5%25AE%258B%25E4%25BD%2593;fontSize=15;" parent="1" vertex="1">
                    <mxGeometry x="480" y="1180" width="60" height="30" as="geometry"/>
                </mxCell>
                <mxCell id="428" value="" style="rounded=0;whiteSpace=wrap;html=1;fontFamily=宋体;fontSource=https%3A%2F%2Ffonts.googleapis.com%2Fcss%3Ffamily%3D%25E5%25AE%258B%25E4%25BD%2593;fontSize=15;" parent="1" vertex="1">
                    <mxGeometry x="480" y="1210" width="60" height="30" as="geometry"/>
                </mxCell>
                <mxCell id="433" value="" style="rounded=0;whiteSpace=wrap;html=1;fontFamily=宋体;fontSource=https%3A%2F%2Ffonts.googleapis.com%2Fcss%3Ffamily%3D%25E5%25AE%258B%25E4%25BD%2593;fontSize=15;" parent="1" vertex="1">
                    <mxGeometry x="540" y="1120" width="60" height="30" as="geometry"/>
                </mxCell>
                <mxCell id="434" value="" style="rounded=0;whiteSpace=wrap;html=1;fontFamily=宋体;fontSource=https%3A%2F%2Ffonts.googleapis.com%2Fcss%3Ffamily%3D%25E5%25AE%258B%25E4%25BD%2593;fontSize=15;fillColor=#ffe6cc;strokeColor=#d79b00;" parent="1" vertex="1">
                    <mxGeometry x="540" y="1150" width="60" height="30" as="geometry"/>
                </mxCell>
                <mxCell id="435" value="" style="rounded=0;whiteSpace=wrap;html=1;fontFamily=宋体;fontSource=https%3A%2F%2Ffonts.googleapis.com%2Fcss%3Ffamily%3D%25E5%25AE%258B%25E4%25BD%2593;fontSize=15;" parent="1" vertex="1">
                    <mxGeometry x="540" y="1180" width="60" height="30" as="geometry"/>
                </mxCell>
                <mxCell id="436" value="" style="rounded=0;whiteSpace=wrap;html=1;fontFamily=宋体;fontSource=https%3A%2F%2Ffonts.googleapis.com%2Fcss%3Ffamily%3D%25E5%25AE%258B%25E4%25BD%2593;fontSize=15;" parent="1" vertex="1">
                    <mxGeometry x="540" y="1210" width="60" height="30" as="geometry"/>
                </mxCell>
                <mxCell id="441" value="&lt;font data-font-src=&quot;https://fonts.googleapis.com/css?family=%E5%AE%8B%E4%BD%93&quot; style=&quot;font-size: 15px&quot; face=&quot;Times New Roman&quot;&gt;X1&lt;/font&gt;" style="text;html=1;strokeColor=none;fillColor=none;align=center;verticalAlign=middle;whiteSpace=wrap;rounded=0;" parent="1" vertex="1">
                    <mxGeometry x="360" y="1090" width="60" height="30" as="geometry"/>
                </mxCell>
                <mxCell id="442" value="&lt;font data-font-src=&quot;https://fonts.googleapis.com/css?family=%E5%AE%8B%E4%BD%93&quot; style=&quot;font-size: 15px&quot; face=&quot;Times New Roman&quot;&gt;Y1&lt;/font&gt;" style="text;html=1;strokeColor=none;fillColor=none;align=center;verticalAlign=middle;whiteSpace=wrap;rounded=0;" parent="1" vertex="1">
                    <mxGeometry x="420" y="1090" width="60" height="30" as="geometry"/>
                </mxCell>
                <mxCell id="443" value="&lt;font data-font-src=&quot;https://fonts.googleapis.com/css?family=%E5%AE%8B%E4%BD%93&quot; style=&quot;font-size: 15px&quot; face=&quot;Times New Roman&quot;&gt;X2&lt;/font&gt;" style="text;html=1;strokeColor=none;fillColor=none;align=center;verticalAlign=middle;whiteSpace=wrap;rounded=0;" parent="1" vertex="1">
                    <mxGeometry x="480" y="1090" width="60" height="30" as="geometry"/>
                </mxCell>
                <mxCell id="444" value="&lt;font data-font-src=&quot;https://fonts.googleapis.com/css?family=%E5%AE%8B%E4%BD%93&quot; style=&quot;font-size: 15px&quot; face=&quot;Times New Roman&quot;&gt;Y2&lt;/font&gt;" style="text;html=1;strokeColor=none;fillColor=none;align=center;verticalAlign=middle;whiteSpace=wrap;rounded=0;" parent="1" vertex="1">
                    <mxGeometry x="540" y="1090" width="60" height="30" as="geometry"/>
                </mxCell>
                <mxCell id="445" value="&lt;font data-font-src=&quot;https://fonts.googleapis.com/css?family=%E5%AE%8B%E4%BD%93&quot; style=&quot;font-size: 15px&quot; face=&quot;Times New Roman&quot;&gt;1&lt;/font&gt;" style="text;html=1;strokeColor=none;fillColor=none;align=center;verticalAlign=middle;whiteSpace=wrap;rounded=0;" parent="1" vertex="1">
                    <mxGeometry x="330" y="1120" width="30" height="30" as="geometry"/>
                </mxCell>
                <mxCell id="446" value="&lt;font data-font-src=&quot;https://fonts.googleapis.com/css?family=%E5%AE%8B%E4%BD%93&quot; style=&quot;font-size: 15px&quot; face=&quot;Times New Roman&quot;&gt;2&lt;/font&gt;" style="text;html=1;strokeColor=none;fillColor=none;align=center;verticalAlign=middle;whiteSpace=wrap;rounded=0;" parent="1" vertex="1">
                    <mxGeometry x="330" y="1150" width="30" height="30" as="geometry"/>
                </mxCell>
                <mxCell id="447" value="&lt;font data-font-src=&quot;https://fonts.googleapis.com/css?family=%E5%AE%8B%E4%BD%93&quot; style=&quot;font-size: 15px&quot; face=&quot;Times New Roman&quot;&gt;3&lt;/font&gt;" style="text;html=1;strokeColor=none;fillColor=none;align=center;verticalAlign=middle;whiteSpace=wrap;rounded=0;" parent="1" vertex="1">
                    <mxGeometry x="330" y="1180" width="30" height="30" as="geometry"/>
                </mxCell>
                <mxCell id="452" value="&lt;font data-font-src=&quot;https://fonts.googleapis.com/css?family=%E5%AE%8B%E4%BD%93&quot; style=&quot;font-size: 15px&quot; face=&quot;Times New Roman&quot;&gt;...&lt;/font&gt;" style="text;html=1;strokeColor=none;fillColor=none;align=center;verticalAlign=middle;whiteSpace=wrap;rounded=0;" parent="1" vertex="1">
                    <mxGeometry x="330" y="1210" width="30" height="30" as="geometry"/>
                </mxCell>
                <mxCell id="453" value="&lt;p class=&quot;MsoNormal&quot;&gt;&lt;font style=&quot;font-size: 22px&quot; face=&quot;宋体&quot; data-font-src=&quot;https://fonts.googleapis.com/css?family=%E5%AE%8B%E4%BD%93&quot;&gt;标注序号栈&lt;/font&gt;&lt;/p&gt;" style="text;html=1;strokeColor=none;fillColor=none;align=center;verticalAlign=middle;whiteSpace=wrap;rounded=0;" parent="1" vertex="1">
                    <mxGeometry x="140" y="1210" width="130" height="30" as="geometry"/>
                </mxCell>
                <mxCell id="454" value="&lt;p class=&quot;MsoNormal&quot; style=&quot;font-size: 22px&quot;&gt;&lt;font face=&quot;宋体&quot; style=&quot;font-size: 22px&quot;&gt;商品位置&lt;/font&gt;&lt;/p&gt;&lt;p class=&quot;MsoNormal&quot; style=&quot;font-size: 22px&quot;&gt;&lt;font face=&quot;宋体&quot; style=&quot;font-size: 22px&quot;&gt;寄存器数组&lt;/font&gt;&lt;/p&gt;" style="text;html=1;strokeColor=none;fillColor=none;align=center;verticalAlign=middle;whiteSpace=wrap;rounded=0;" parent="1" vertex="1">
                    <mxGeometry x="600" y="1160" width="130" height="80" as="geometry"/>
                </mxCell>
                <mxCell id="463" value="&lt;font style=&quot;font-size: 18px&quot;&gt;adjust&lt;/font&gt;" style="text;html=1;align=center;verticalAlign=middle;resizable=0;points=[];autosize=1;strokeColor=none;fillColor=none;fontSize=22;fontFamily=Times New Roman;" parent="1" vertex="1">
                    <mxGeometry x="260" y="1160" width="60" height="30" as="geometry"/>
                </mxCell>
                <mxCell id="672" value="&lt;font face=&quot;宋体&quot; data-font-src=&quot;https://fonts.googleapis.com/css?family=%E5%AE%8B%E4%BD%93&quot; style=&quot;font-size: 22px&quot;&gt;二值化图像&lt;/font&gt;" style="text;html=1;strokeColor=none;fillColor=none;align=center;verticalAlign=middle;whiteSpace=wrap;rounded=0;" parent="1" vertex="1">
                    <mxGeometry x="40" y="720" width="120" height="30" as="geometry"/>
                </mxCell>
                <mxCell id="673" value="&lt;font face=&quot;宋体&quot; data-font-src=&quot;https://fonts.googleapis.com/css?family=%E5%AE%8B%E4%BD%93&quot; style=&quot;font-size: 22px&quot;&gt;已遍历区域&lt;/font&gt;" style="text;html=1;strokeColor=none;fillColor=none;align=center;verticalAlign=middle;whiteSpace=wrap;rounded=0;" parent="1" vertex="1">
                    <mxGeometry x="280" y="795" width="120" height="30" as="geometry"/>
                </mxCell>
                <mxCell id="674" value="&lt;font face=&quot;宋体&quot; data-font-src=&quot;https://fonts.googleapis.com/css?family=%E5%AE%8B%E4%BD%93&quot; style=&quot;font-size: 22px&quot;&gt;未遍历区域&lt;/font&gt;" style="text;html=1;strokeColor=none;fillColor=none;align=center;verticalAlign=middle;whiteSpace=wrap;rounded=0;" parent="1" vertex="1">
                    <mxGeometry x="277.5" y="980" width="125" height="30" as="geometry"/>
                </mxCell>
            </root>
        </mxGraphModel>
    </diagram>
</mxfile>